# xmcd
#
# Track frame offsets: 
#        150
#        16497
#        34835
#        56145
#        70220
#        85980
#        107960
#        132277
#        151585
#        170775
#        188535
#        220337
#        237660
#        249112
#
# Disc length: 3599 seconds
#
# Revision: 4
# Processed by: cddbd v1.5.2PL0 Copyright (c) Steve Scherf et al.
# Submitted via: ExactAudioCopy v0.99pb5
#
DISCID=c10e0d0e
DTITLE=XTC - Black Sea (remastered)
DYEAR=1980
DGENRE=New Wave
TTITLE0=Respectable Street
TTITLE1=Generals and Majors
TTITLE2=Living Through Another Cuba
TTITLE3=Love At First Sight
TTITLE4=Rocket from a Bottle
TTITLE5=No Language in Our Lungs
TTITLE6=Towers of London
TTITLE7=Paper and Iron (Notes and Coins)
TTITLE8=Burning With Optimism's Flames
TTITLE9=Sgt. Rock (Is Going To Help Me)
TTITLE10=Travels In Nihilon
TTITLE11=Smokeless Zone
TTITLE12=Don't Lose Your Temper
TTITLE13=The Somnambulist
EXTD=Virgin records
EXTT0=
EXTT1=
EXTT2=
EXTT3=
EXTT4=
EXTT5=
EXTT6=
EXTT7=
EXTT8=
EXTT9=
EXTT10=
EXTT11=
EXTT12=
EXTT13=
PLAYORDER=
